<?xml version="1.0" encoding="UTF-8" standalone="no"?>
<!DOCTYPE svg PUBLIC "-//W3C//DTD SVG 1.1//EN" "http://www.w3.org/Graphics/SVG/1.1/DTD/svg11.dtd">
<svg width="100%" height="100%" viewBox="0 0 1000 1000" version="1.1" xmlns="http://www.w3.org/2000/svg" xmlns:xlink="http://www.w3.org/1999/xlink" xml:space="preserve" xmlns:serif="http://www.serif.com/" style="fill-rule:evenodd;clip-rule:evenodd;stroke-linejoin:round;stroke-miterlimit:2;">
    <g transform="matrix(1.05602,0.390994,-0.374308,1.01095,129.428,-194.037)">
        <path d="M477.177,70.241C480.496,60.027 489.674,53.157 500,53.157C510.326,53.157 519.504,60.027 522.823,70.241C539.465,121.461 562.227,191.516 580.623,248.132C599.535,306.337 651.841,345.491 710.684,345.491C769.789,345.491 843.889,345.492 898.668,345.492C909.201,345.492 918.514,352.636 921.665,363.134C924.817,373.633 921.077,385.053 912.43,391.335C869.813,422.298 813.056,463.535 766.491,497.366C716.241,533.875 695.183,600.713 714.856,661.259C732.695,716.161 754.26,782.533 770.355,832.068C773.7,842.363 770.341,853.738 762.025,860.275C753.709,866.813 742.315,867.035 733.771,860.827C688.896,828.224 627.179,783.384 578.426,747.963C531.283,713.711 468.717,713.711 421.574,747.963C372.821,783.384 311.104,828.224 266.229,860.827C257.685,867.035 246.291,866.813 237.975,860.275C229.659,853.738 226.3,842.363 229.645,832.068C245.74,782.533 267.305,716.161 285.144,661.259C304.817,600.713 283.759,533.875 233.509,497.366C186.944,463.535 130.187,422.298 87.57,391.335C78.923,385.053 75.183,373.633 78.335,363.134C81.486,352.636 90.799,345.492 101.332,345.492C156.111,345.492 230.211,345.491 289.316,345.491C348.159,345.491 400.465,306.337 419.377,248.132C437.773,191.516 460.535,121.461 477.177,70.241Z" style="fill:rgb(240,255,1);"/>
    </g>
</svg>
